<svg height="260pt" preserveAspectRatio="xMidYMid meet" viewBox="0 0 325 260" width="325pt" xmlns="http://www.w3.org/2000/svg"><g transform="matrix(.1 0 0 -.1 0 260)"><path d="m1196 1831c-230-126-272-152-285-180-14-29-13-45 13-198 30-180 58-273 101-329 15-19 29-34 31-32s10 78 17 168c14 156 16 165 41 186 44 38 160 58 336 57 201-1 339-28 378-76 7-8 16-78 21-161 5-81 12-150 15-153 9-9 83 114 116 193 17 42 29 78 27 80-2 3-17 0-32-6s-30-9-32-6c-3 2 70 60 161 129l165 124-67 7c-37 3-85 6-107 6-81 1-69 14 85 99 83 46 149 85 147 87s-115-12-252-31-250-33-252-31c-2 1 62 34 142 71 79 38 143 70 141 73-2 2-151-22-331-53s-329-54-332-51c-3 2 3 41 12 86s15 83 13 85-124-63-272-144z"/><path d="m1175 1296c-66-40-95-111-75-185 31-116 163-164 264-96l36 24v-59-59l33 6c88 17 108 36 45 41-36 3-38 5-38 36 0 18-3 54-6 80-7 45-6 46 20 46 20 0 29-8 41-37 43-103 156-141 250-83 50 31 78 92 73 156-8 90-62 144-151 152-41 3-63-1-94-17-41-20-83-74-83-105 0-11-9-16-29-16-22 0-30 6-35 24-8 32-52 83-87 101-44 23-117 19-164-9zm153-46c79-49 67-170-21-205-50-20-88-12-126 25-50 51-46 127 10 174 38 32 91 34 137 6zm382 5c87-45 76-172-17-211-88-37-183 50-153 141 24 73 102 105 170 70z"/><path d="m2025 1098c-16-11-54-31-82-45-47-21-53-28-53-54 0-27 3-30 23-24 12 4 41 18 65 31l42 25v-246-245h30 30v290c0 315 2 306-55 268z"/><path d="m1920 861v-50l-27 15c-87 45-183-23-170-120 10-74 87-113 160-82 21 8 37 11 37 5 0-5 16-9 35-9h35v145 145h-35-35zm-22-87c34-24 28-84-11-102-68-33-130 45-77 98 24 24 57 26 88 4z"/><path d="m1028 824c-16-8-28-10-28-4 0 5-16 10-35 10h-35v-105-105h35 35v69c0 77 11 94 61 94 41 0 49-15 49-95v-68h30 30v88c0 48-4 92-8 98-23 34-89 43-134 18z"/><path d="m1270 822c-70-35-77-152-12-186 68-35 161-27 205 17l22 22-34 3c-19 2-44-2-56-8-33-18-85-9-103 18l-14 22h107 107l-8 32c-9 44-29 73-60 86-37 17-114 14-154-6zm114-28c9-4 21-15 27-25 9-18 5-19-60-19-56 0-69 3-65 14 10 26 65 43 98 30z"/><path d="m1623 820c-27-16-33-17-33-5 0 10-11 15-34 15h-33l-1-105v-105h33 33l4 66c5 76 22 98 76 92 30-4 32-2 32 29 0 28-4 33-22 33-13 0-38-9-55-20z"/></g></svg>