<svg height="2443pt" preserveAspectRatio="xMidYMid meet" viewBox="0 0 2462 2443" width="2462pt" xmlns="http://www.w3.org/2000/svg"><g transform="matrix(.1 0 0 -.1 0 2443)"><path d="m14409 13598c-30-4-85-8-122-10-37-1-70-5-73-10-3-4-16-5-28-2-16 4-30-1-42-14-22-23-80-38-97-24-34 27-323 17-352-12-12-11-20-12-40-3-14 7-25 15-25 20 0 4-8 7-17 7-15 0-16-2-3-10s12-10-3-10c-13 0-17-6-15-22 2-11-3-23-9-25-8-3-13 4-13 15 0 15-5 19-20 15s-20 0-21 13c0 18-1 17-8-1-5-11-7-23-4-27 2-5-8-3-23 2-21 8-31 7-44-5-9-8-20-12-23-9-4 4-12 2-19-4-7-5-24-12-37-14-13-1-29-12-35-23-14-26-28-36-43-30-7 2-13 0-13-5 0-6-8-5-19 1-15 10-22 8-40-10-15-15-28-20-45-15-13 3-27 1-31-5-3-6-17-8-30-5-17 4-29 0-41-15-14-15-21-18-31-9-14 12-28 4-28-15 0-7-13-13-30-15-16-2-37-6-45-9-49-21-235-38-245-23-3 4-14 6-25 3s-26 0-34 6c-9 8-16 8-20 2s-26-10-50-9c-23 0-53-5-65-12-13-6-25-9-29-6-3 3-14-1-24-11-10-9-21-13-25-10-3 4-1 7 6 7s9 5 6 10c-4 7-13 6-26-1-17-9-21-7-26 10-5 21-37 29-47 12-4-5-25 0-49 12-46 23-47 23-159 28-43 1-78 7-78 12 0 6-20 7-47 4-26-3-57-1-70 4-16 6-23 5-23-4 0-7-7-4-14 6-8 10-17 14-20 9-10-17-97-20-142-5-32 11-51 12-80 4-20-6-42-7-47-4-6 4-35 5-64 4-36-2-53 1-53 9 0 9-4 9-13 2-8-7-18-7-27-2-9 6-17 5-21-2-7-11-28-18-61-21-9-1-15-3-13-6 11-10-20-31-46-31-15 0-31-5-35-11-3-6-17-8-29-5-13 3-27 1-30-4-4-6-11-8-16-4-6 3-19-2-29-11-11-10-24-14-32-9-15 10-61 7-104-7-23-7-43-6-71 4-22 7-46 10-54 7-8-4-23-12-34-17-37-19-86-26-83-13 4 15-66 17-102 2-19-7-29-6-43 6-16 15-18 14-24-6-5-19-8-20-32-9-14 7-44 12-66 11-174-7-405-15-427-15-15 1-45-6-68-15-26-11-52-14-75-10-19 4-35 3-35-2s-12-7-26-4c-14 2-36-1-50-8-18-10-29-11-46-2-13 6-48 13-79 16s-73 12-94 20c-20 9-41 13-47 10-5-3-19 1-31 9-13 8-35 12-53 10-19-3-47 2-68 12-20 10-43 15-51 11-8-3-15-1-15 5 0 5-6 9-12 8-20-2-58 12-58 22 0 5-10 9-22 9-13 0-31 7-41 14-13 10-29 11-69 4-41-8-53-7-59 5-27 47-48 62-88 62-23 0-41 3-41 8 0 4-4 6-9 2-13-7-98 14-136 34-16 9-43 18-60 21-21 4-30 11-29 23 2 20-7 22-23 6-7-7-17-8-25-3-7 5-21 7-30 6-10-2-18 1-18 7 0 7-8 7-26 1-14-6-31-7-37-3-7 4-43 8-82 9-38 1-94 7-123 14-39 8-57 8-67 0s-15-8-20 0-11 8-21-1c-10-8-30-9-62-4-26 4-78 8-117 10-38 1-72 3-75 5-3 1-15 1-28 0s-28 3-35 8c-7 6-31 9-55 9-31-2-42 2-42 13-1 12-3 12-14-2-10-14-23-16-67-12-30 3-61 8-69 11-21 7-89 7-125-1-16-3-50-8-74-11s-48-8-54-12c-19-12-127-11-127 1 0 6-4 5-9-3-5-7-24-14-42-16-46-4-46-4-29-15 12-8 9-10-12-10-16 0-28-4-28-10 0-5 5-10 11-10 8 0 8-4 0-14s-23-13-47-9-40 1-53-11c-16-15-19-15-24-1-4 8-16 15-28 15-15 0-19-5-15-15s-1-15-14-15c-11 0-20-7-20-15 0-9-9-15-22-14-22 0-71 17-55 18 4 1 3 10-3 21-7 12-16 18-23 13-6-4-43-8-82-10-246-8-314-24-440-103-64-40-113-84-142-127-9-13-22-23-29-23-8 0-14-4-14-9 0-4-20-39-45-75-25-37-45-73-45-80 0-18-51-77-61-70-5 3-9 14-9 26 0 17-2 19-16 8-27-23-36-48-24-71 9-15 18-19 36-15 22 6 23 4 18-23-5-25-1-36 25-61 17-18 31-35 31-40 0-4 7-21 15-36 8-16 12-37 9-46-4-12 3-21 20-30 18-7 26-19 26-36 0-15 7-26 20-29 17-4 60-70 60-91 0-11-77-52-96-52-8 0-32-11-54-25s-50-25-62-25c-13 0-32-7-42-15-11-8-29-15-40-15-25-1-58-27-75-59-10-17-16-20-24-12-6 6-25 11-43 11-17 0-37 7-44 15-16 19-10 26 21 27 13 1 29 6 36 11s17 6 22 3c19-12 38 33 34 82-5 65-50 99-85 64-7-7-16-12-20-12-5 0-20-7-34-17-18-11-22-18-13-24 17-10-4-57-28-65-10-3-33-13-51-22-27-14-36-14-53-4-20 13-39 9-39-9 0-5 7-9 15-9s15-7 15-16c0-10-7-14-22-12-19 3-23-3-31-39-4-24-12-43-17-43-4 0-10-6-13-13-7-18 142 12 166 34 25 23 96 49 103 38 10-16-5-27-50-33-30-5-45-12-49-25-2-10-17-21-33-24-17-3-33-15-39-29-7-17-19-23-42-25-18-1-36 3-39 8-3 6-11 3-18-6-8-11-28-16-71-16-38-1-66-6-77-16-9-8-25-14-35-12-10 1-26-1-35-5-24-11-53-3-53 14 0 10 15 17 50 22 55 7 68 10 105 25 14 6 34 12 44 14 24 5 30 37 8 47-32 14-142-3-142-23 0-15-48-26-56-13-3 5-11 5-19-2-9-7-16-6-25 5-12 15-35 11-25-5 3-4-1-13-9-19-13-11-187-7-207 5-10 6-163 6-211 0-29-3-58-27-58-48 0-11-2-11-9 0-10 17-81 33-99 23-13-7-75 3-117 20-30 11-105 22-152 20-23-1-53 3-68 9-16 6-33 7-42 1-12-6-4-11 33-19 79-17 109-31 96-44-16-16-207 8-252 32-75 39-125 48-150 25-9-8-19-13-21-11-4 4-107 15-190 21-19 1-63 12-97 24-76 26-105 27-100 4 4-22 172-105 212-104h79c28 0 59 7 73 16 23 15 30 15 87-1 34-9 83-20 110-25 26-4 62-18 79-31 18-13 44-28 58-35 24-11 24-11-13-12-21-1-48 4-60 11-13 7-76 12-152 13-71 1-141 7-155 12-14 6-50 8-80 6-46-4-63 0-105 22-30 16-72 29-105 32-53 4-202 44-246 65-16 7-37 5-80-8-42-12-96-18-184-19-69-1-133-5-142-9-15-7-18-3-18 18 0 19-5 26-19 26-10 0-25 7-32 16-11 14-10 18 5 30 11 8 30 11 43 8 14-4 23-2 23 5 0 6 9 11 20 11s29 5 39 12c16 10 28 8 64-11 24-13 57-22 73-21s32 1 37 0c9-3 67-6 67-3 0 1-15 11-34 23-44 27-78 32-200 31-104-1-176-16-176-36 0-7-11-10-30-7-17 2-30 8-30 13s-4 9-10 9c-5 0-10-9-10-20 0-12-7-20-16-20-10 0-14-6-11-14 9-22-19-42-37-27-11 9-15 9-19-1-2-7-8-1-12 15-9 32-10 32-34 8-42-42-56-106-26-117 8-4 15-12 15-20 0-10 6-8 20 6 11 11 20 26 20 34s4 18 10 21c5 3 10-1 10-9 0-9 3-15 8-15 31 5 50-24 31-47-9-11-7-15 7-21 11-3 31-15 46-25 14-10 33-15 42-12 10 4 17-2 22-20 6-27 7-27 99-31 22-1 56-3 75-4 24-1 31-4 21-10-24-15-6-35 35-38 21-1 66-4 99-6 68-4 87-10 134-45 27-20 50-26 130-32 117-10 241-35 298-61 24-10 52-19 62-19 11 0 23-5 26-11 4-6 14-8 22-4 9 3 25-1 37-8 12-8 36-18 54-21 17-4 32-12 32-18s-3-8-7-5c-3 4-12 2-20-4-10-9-18-8-33 6-11 10-20 13-20 7 0-7-14-12-31-12-23 0-30 4-25 15 3 10-3 16-19 20-25 5-76 17-85 20-3 1-23 5-45 9s-50 11-61 16c-14 5-26 4-33-3-9-9-14-9-19 0-5 8-13 9-22 3-8-5-26-7-40-3-23 5-24 4-9-11 10-11 32-17 58-18 23 0 44-4 46-9 3-4 12-6 20-3 13 5 35-22 32-40-3-12 64-31 164-46 46-7 121-21 167-32 46-10 88-16 93-12 6 3 15 1 22-4 7-6 35-13 62-17 28-4 58-11 67-16 10-5 18-5 20 1 3 10 54 3 148-20 25-6 52-11 60-11s43-5 78-11c47-8 62-14 58-24-4-9 2-14 15-14 11 0 17 5 14 10-3 6-3 10 0 10 22 0 165-33 190-44 17-8 53-22 80-31 28-10 55-22 60-26 6-4 48-22 92-38 98-36 224-61 336-67 129-6 168-17 190-51 4-7 16-13 25-13s40-23 67-52c126-130 190-188 207-188 10 0 18-5 18-11 0-5-4-7-10-4-5 3-10-1-10-9 0-9 3-16 8-16 13 0 33 17 31 26-2 5 1 19 5 32 4 14 3 28-3 36-13 15-4 26 21 26 10 0 18 7 18 15s-4 15-10 15c-21 0-9 31 15 40 14 5 25 13 25 18 0 4 16 6 36 4 26-3 35-1 30 7-4 6-13 11-19 10-28-3-39 2-33 16 3 8 1 15-4 15-18 0-10 15 13 25 12 6 23 20 25 33 5 34 22 26 20-10-1-44 10-78 27-78 27 0 36-84 9-94-22-9-21-9-34 29-8 23-18 35-30 35-26 0-32-71-8-100 10-12 18-32 18-45 0-12 9-30 20-40 27-24 25-37-9-56-19-12-30-27-35-52-7-36-25-51-50-41-16 6-46-21-46-41 0-8 11-26 25-41s25-33 25-40c0-8 11-16 25-20 21-5 23-9 14-20s-9-21 0-40c6-14 11-35 11-48s7-29 15-36c8-6 17-21 21-32 6-21 18-37 67-91 15-18 27-35 27-40 0-4 15-14 33-22 17-8 26-14 18-15-11 0-11-3-1-15 6-8 15-13 18-12 12 3 48-27 66-55 10-16 24-28 32-28 7 0 17-6 21-13 15-25 127-94 223-138 51-23 185-59 247-66 40-5 63-26 43-38-6-4-10-14-10-24s-7-24-15-31c-21-17-19-30 5-30 11 0 20-7 20-15s9-19 20-25 18-15 15-20c-3-4-2-16 1-25 5-13 9-14 15-3 7 11 11 10 18-2 6-8 21-15 35-15 30-2 56-22 56-44 0-10 3-12 8-6 11 16 50 16 56-1 3-8 10-14 16-14s8 5 5 10c-3 6-2 10 4 10 5 0 13-5 16-11 4-6 14-8 22-5 9 4 21-1 28-11 11-15 15-15 29-4 13 11 16 11 16 1 0-8 3-10 7-7 3 4 12 2 20-5 11-9 13-8 11 2-5 20 143 14 159-7 11-14 13-14 18-1 5 11 16 14 43 10 85-12 890-3 1132 13 188 12 229 14 337 17 62 2 113 5 113 8s57 7 127 8c69 2 149 7 177 12 32 5 56 4 63-2s13-6 13-1c0 4 17 7 38 5 20-2 71 1 112 7 41 5 77 7 80 2 5-7 55-7 170 2 30 2 61 0 68-6 8-6 12-6 12 2s26 11 78 11c109-1 412 9 444 14 15 2 32 7 39 11 6 4 15 2 19-6 9-14 65-16 138-3 31 5 42 3 42-6 0-10 3-10 16 1 12 10 17 10 23 1 6-10 18-8 52 7 24 11 46 16 49 12s22-6 44-3c25 3 34 7 25 13-17 10-7 20 25 23 17 2 26-2 26-11 0-8 5-11 11-8 6 4 8 13 5 21-4 10 2 12 25 7 38-7 68 17 61 52-3 20-9 24-33 21-19-2-29 1-29 10 0 8 6 11 15 8 9-4 15 0 15 10 0 9 7 16 15 16 19 0 19 10-2 40-16 22-16 23 0 17 9-3 17-2 17 3 0 6 7 10 15 10s15 7 15 15-5 15-11 15c-5 0-8 4-4 10 3 5 12 7 20 3 10-3 15 1 15 15 0 22 13 36 24 25 3-3 1-12-5-19-14-17-3-35 17-27 8 3 13 12 9 21-3 8 0 21 6 28 9 11 8 14-2 14-8 0-20 9-27 20-12 19-14 19-34 6-16-11-25-13-35-4-7 6-13 6-13 1s-13-8-30-5c-19 3-27 8-23 16 4 6 6 19 5 28-4 25 102 66 423 163 106 32 262 83 290 95 83 36 274 114 295 121 14 4 48 16 75 27 28 11 73 28 100 37 28 10 66 25 85 33 36 17 42 18 75 22l20 1-20 9c-17 6-14 9 20 16 22 4 42 8 45 9 3 0 14 6 25 12 26 14 102 35 138 37 16 1 32 7 35 13 4 7 32 15 62 18 30 4 65 14 78 22 12 7 26 12 31 9 4-3 17 1 27 9 18 13 16 17-33 62-29 27-53 52-53 56 0 8 81-40 90-53 3-4 19-16 36-26 16-11 47-38 69-62 21-24 44-41 51-38 8 3 18-3 24-14s16-17 25-14c11 5 13 2 8-12-5-13-3-16 9-11 9 3 24-1 35-8 10-8 14-15 8-15-20-1 21-20 43-20 13 0 20-4 17-10-3-5 4-10 15-10 16 0 20-4 16-16-5-12-2-15 9-10 9 3 23 2 33-3 9-5 34-16 55-25s35-21 32-26c-3-6 3-10 14-10 12 0 21-6 21-14 0-10 7-12 22-8 16 4 20 1 16-9-4-11 4-14 34-13 42 1 87-16 108-41 7-8 21-15 31-15 11 0 19-5 19-11 0-5 4-8 9-4 5 3 16-2 25-10 9-9 26-17 38-19 27-3 88-28 149-61 30-16 43-29 41-41-3-13 2-15 17-11 12 3 19 1 16-3-3-5 9-15 27-24 18-8 123-55 234-105 297-134 633-259 837-312 43-11 167-38 275-60 356-72 512-105 518-111 13-14-7-27-29-19-15 6-30 3-47-8-14-10-45-18-69-19-29-1-48-7-53-17-6-10-14-12-26-7-9 5-37 8-62 6-62-3-60-3-57-16 1-7-5-13-13-14-8 0-23-4-32-8-10-5-40-6-68-4-48 3-69-9-55-32 3-4-2-10-10-14-27-10-17-27 11-20 19 5 25 4 20-5-4-6-15-11-25-11-13 0-18-8-18-30 0-35 7-38 27-10 18 25 37 26 45 1 7-22 69-35 96-20 12 6 19 6 19 0 0-5 8-10 18-10 61-3 78-6 84-15 5-7 8-7 8 2 0 10 7 11 23 5 12-4 45-9 72-10 28-1 82-4 120-7 102-8 363-19 487-20 58-1 110-4 113-8 4-4 16-3 27 3 10 5 22 8 26 5 7-4 242-19 272-17 24 1 434 0 578-2 72-2 132 0 132 3s30 4 67 2c169-6 355-6 361-1 4 4 39 4 77 1 39-4 106-5 150-2s178 5 297 5c120 0 218 2 218 5s60 6 133 7c72 0 191 4 262 8 72 3 182 9 245 12 134 6 159 8 345 23 77 7 158 12 179 11 22 0 44 3 50 7 6 3 31 8 56 9 25 2 58 8 74 13 16 6 45 10 65 10 54 0 211 35 261 58 25 11 55 23 68 26 12 4 22 14 22 23s9 24 21 34c18 15 19 21 8 41-13 23-15 29-17 61-1 11-7 15-13 11-7-4-10-2-7 6 2 6 42 28 89 48 47 21 98 47 113 60 16 12 34 22 42 22 7 0 14 4 16 8 2 5 32 22 68 40 99 48 149 89 150 122 0 9 9 23 20 33 15 12 20 29 20 65 0 39 5 53 25 72 26 24 33 50 14 50-6 0-9 14-7 33 2 23 7 31 19 29s17 5 17 20c0 13 8 52 16 88 20 84 20 118 0 138-11 10-13 17-5 20 13 4 15 52 2 52-5 0-11-6-14-12-2-7-4-1-3 13 1 17 6 25 13 22 15-6 7 84-10 104-5 7-7 24-4 39 3 19-5 37-39 77-33 38-42 56-38 71 4 12 10 23 15 26 11 7-7 81-22 90-6 4-8 13-4 19 4 7 2 18-4 25-8 10-8 22-1 41 6 15 8 36 5 46-4 11-3 19 2 19 4 0 8 15 9 33 1 38 9 68 23 96 14 26 14 34-1 25-6-4-4 3 5 17 9 13 17 32 17 42s9 27 20 39c25 27 26 58 3 59-14 0-13 2 5 9 26 11 28 19 6 35-14 9-14 16-5 33 14 26 7 44-14 35-10-3-15 1-15 15 0 26-20 40-21 15 0-10-3-13-6-5-8 20-22 14-16-8 3-11 9-20 14-20s9-4 9-10c0-5-9-10-20-10-16 0-20 7-20 31 0 16-4 28-9 25-4-3-7-16-6-30 2-17-3-26-16-29-11-3-19 0-19 8 0 7-18 15-42 19-44 7-108 41-108 57 0 5-6 9-14 9s-18 9-21 20c-4 11-23 28-43 38-34 16-70 61-71 90-1 7-15 27-31 45-18 19-33 48-36 70-4 20-11 37-15 37-5 0-6 18-3 40 5 31 3 41-10 46-9 3-14 10-11 14 3 5-4 11-15 15-15 5-19 12-15 25 8 24-12 35-38 21-12-6-34-15-49-21-21-7-28-17-29-37-1-17-3-21-6-10-2 9-8 17-11 17-12 0-78-64-85-82-4-10-15-18-26-18s-23-5-26-11c-4-6-14-8-22-5s-20 3-26-1c-7-5-30-8-53-9-22 0-45-4-52-8s-12-5-12-2-31-6-69-19c-38-14-84-25-103-25-24 0-42-8-57-24-13-14-31-25-40-25-61-3-136-18-134-26 1-6-16-9-37-9-21 1-51-4-65-12-15-8-34-14-42-14-22 0-113-31-119-41-3-5 4-9 14-9 15 0 19-5 15-20-3-11 0-20 6-20s11 5 11 10c0 19 28 10 33-10 8-31 6-35-17-32-18 2-19 1-6-8 12-9 12-13 2-17-7-3-26-16-41-29-16-13-36-24-45-24-25 0-106-39-106-51 0-6-4-8-9-4-5 3-12 1-16-5-7-11-94-8-114 5-8 4-45 9-83 10-67 1-69 0-75-25-4-21-11-27-33-27-21 0-26 4-22 19 2 10 13 18 24 18 23 0 21 32-2 36-8 1-28 7-44 13-23 9-26 14-16 26 16 19-5 49-28 40-18-7-82 4-79 14 2 5-8 12-15 10-2 0-22-2-45-4s-48-7-55-11c-7-5-23-7-35-6-11 2-24-1-27-6s-28-7-56-4c-29 3-50 0-50-5 0-6-20-9-45-9-29 1-49-4-54-13-5-8-16-11-30-6-12 4-27 2-34-3s-23-12-37-15c-14-4-34-14-45-24-29-26-75-46-115-50-55-5-70-14-40-24 21-7 18-8-12-5-55 5-167-22-257-61-18-8-70-22-115-30-44-8-95-18-112-23-28-9-240-25-274-21-65 7-118 11-200 15-52 3-140 8-195 11-77 6-110 4-142-8-30-10-43-11-46-3s-10 8-25-1c-16-10-35-9-88 2-45 9-73 11-85 4-13-6-25-5-39 3-17 11-22 11-29 0-4-7-15-10-24-6-10 3-24 1-32-6-8-6-19-9-26-5-6 4-16 1-21-6-7-11-11-11-15-1-6 15-30 16-35 0-3-7-30-13-68-14-38-2-59 0-51 5 10 7 9 10-8 16-16 5-26 2-35-10-17-24-271-32-323-10-20 8-57 15-84 15-26 0-51 5-54 10-4 6-14 9-23 6-10-3-33-7-54-10-20-2-44-9-55-14-10-6-41-10-70-10-29-1-60-5-70-10-22-11-81-6-98 8-7 6-21 7-30 3-12-4-16-3-12 4 9 14-31 23-89 22-23-1-50 2-61 5-13 4-26 0-38-14-14-15-22-17-36-9-11 5-24 7-29 4-6-3-10-2-10 2 0 5-14 17-31 27-29 17-49 17-94 0-14-6-16-3-10 14 6 20 3 22-27 21-31 0-32-1-10-11 40-20 24-26-55-21-43 3-90 5-105 5-15 1-29 7-32 14-4 10-24 14-66 14-38 0-59 4-55 10 3 6-1 10-10 10s-14-4-11-9-1-11-9-15c-10-3-15 1-15 13 0 29-84 49-117 28-8-5-13-3-13 7 0 21-11 26-79 31-33 3-72 10-86 15-37 14-48 12-41-5 7-19 2-19-35 1-22 11-43 13-71 9-31-6-39-4-33 5 6 10 2 12-15 7-13-3-29-2-35 3-7 5-52 12-101 15-94 5-184 23-184 37 0 4-7 8-16 8-8 0-13-4-10-9s-1-11-9-14c-10-4-12-1-8 10 5 13 2 15-18 8-39-12-149-2-149 15 0 9-40 23-55 20-23-5-105-5-105 0 0 3-22 6-49 6-44 1-48-1-43-20 4-21 4-21-12-1-15 19-17 19-30 2-9-12-15-14-18-6-2 6-22 11-46 11-42-1-56 13-26 25 14 5 12 8-7 19-32 17-40 17-33-1 4-8 1-15-5-15s-11 6-11 14c0 19-54 38-69 23-6-6-11-17-11-24s-6-10-13-7c-9 3-12-4-11-23 2-39 4-41 14-18 8 16 9 13 7-14-3-42-33-66-48-38-12 21-29 22-29 1 0-19 24-44 43-44 22 0 9-48-15-56-30-9-34 3-7 25l24 20-22 1c-14 0-23-6-23-15 0-8-4-15-9-15-16 0-23-40-10-56 6-8 19-13 28-12 11 2 17-6 19-23 4-33-17-42-52-24-15 8-33 12-41 8-10-3-15 1-15 13 0 15-2 16-9 5s-15-9-42 10c-19 13-35 23-36 21-13-12-45 5-66 35s-24 40-15 57 7 22-13 35c-13 8-52 43-87 78-34 35-69 63-77 63s-15 9-15 20c0 13-9 22-25 26-15 4-28 16-31 29-3 12-16 27-30 34-14 6-24 19-24 31 0 11-4 20-9 20-13 0-11 59 3 85 24 46 60 87 82 95 23 9 107-11 219-53 36-13 186-38 320-52 100-11 142-17 237-36 53-10 138-23 190-29 51-6 111-15 134-20 22-5 99-12 170-15 194-8 404-27 679-62 30-4 173-12 250-14 21-1 41 4 43 10s8 8 13 5c11-7 79 42 79 57 0 6 11 25 23 42 13 18 30 48 37 67 11 28 37 71 67 109 1 2 12-4 23-14 21-19 23-17 33 30 5 19 5 19 12-2 12-36 26-15 19 27-6 36-3 43 26 70 18 17 30 33 26 37-6 7 32 53 44 53 4 0 5-11 3-24-3-13 0-27 6-30 6-4 11-15 11-25s7-32 15-47c14-27 13-29-3-32-27-6-37-21-19-28 9-3 17-10 17-16 0-5 6-16 14-24 12-12 20-12 42-2s28 10 32 0c6-19 28-14 60 13 20 16 32 21 39 14s16-3 29 13c11 14 33 33 49 43 17 11 43 29 58 42 16 13 33 21 38 17 5-3 9 2 9 10 0 9 5 16 10 16 6 0 10 9 10 20 0 26 39 48 51 29 7-11 9-10 9 4 0 9 5 17 11 17 5 0 7-5 3-11-12-20 40 2 63 27 12 13 26 24 32 24 5 0 11 5 13 10 2 6 13 12 26 13 12 0 22 5 22 9 0 5 11 13 25 18s25 14 25 20 4 9 8 6c5-3 26 11 48 31 21 19 40 35 42 34 14-6 32 3 37 19 3 11 11 20 17 20 11 0 136 92 173 127 11 10 46 36 78 57 31 21 57 44 57 52s7 14 15 14 22 11 31 25c10 15 26 25 40 25 13 0 24 5 24 10 0 10 78 90 84 87 6-4 106 92 106 101 0 5 9 17 20 27s20 15 20 10c0-4 7-2 15 5 9 7 13 21 9 35-5 18 0 24 25 33 17 6 31 18 31 26s6 19 13 23c21 14 37 51 37 89 0 30-3 34-14 25s-16-5-26 20c-13 29-14 30-27 13-10-14-16-15-25-6-15 15-32 16-23 2 3-6-4-10-17-10s-29-5-35-11c-8-8-17-5-33 11l-22 22-22-25c-22-26-73-43-92-29-13 8-24 60-17 79 8 20 29 16 46-9 21-32 31-17 12 18-14 27-13 29 5 36 11 4 25 20 31 34 12 32 2 41-51 49-19 3-48 10-65 15-30 9-142 26-225 34-25 3-74 9-110 15-36 5-96 11-135 12-38 1-83 6-100 11-71 20-399 28-417 10-15-15-81-15-162-2-76 12-354 17-427 8zm-753-117c-10-15-46-14-46 2 0 7 5 18 12 25 10 10 15 9 26-2 8-8 11-19 8-25zm-6511-41c3-5-1-10-10-10s-13 5-10 10c3 6 8 10 10 10s7-4 10-10zm8905-9c0-6-4-13-10-16-5-3-10 1-10 9 0 9 5 16 10 16 6 0 10-4 10-9zm-8811-140c6 0 22-12 37-26 19-18 39-25 68-26 304-3 430-15 466-43 47-36 130-50 130-21 0 18 50 21 68 3 9-9 12-7 12 11 0 21 2 20 45-15 30-24 45-44 45-60 0-15 6-24 15-24 8 0 15-6 15-14 0-7 3-28 7-46 5-26 3-32-8-28-8 3-14 11-14 19 0 20-20 22-20 1 0-9-6-27-13-39-6-12-12-28-12-36 0-22 48-9 56 15 7 25 16 17 20-19 2-18-4-34-17-46-19-17-22-18-38-3-22 20-41 21-41 2 0-17-24-27-45-20-11 5-12 10-6 18 7 9 6 19-4 33-12 17-22 20-60 16-31-4-45-2-45 6 0 9 18 12 57 10 49-2 58 0 72 20 15 23 15 23-17 16-26-5-32-3-32 10 0 8 7 18 15 21 24 10 17 19-15 20-26 1-30-3-36-33-5-24-11-33-23-31-18 4-24 44-10 70 10 18-5 35-16 18-9-15-25-2-18 15 3 10-1 15-15 15-11 0-25 7-32 15-15 18-32 10-28-13 3-17-16-22-77-23-11 0-27-7-37-15-20-19-38-11-38 17 0 20-10 25-26 10-5-5-27-12-50-16-30-5-44-2-53 9-14 16-54 13-77-6-40-31-204 15-204 57 0 6-10 11-22 11-18-1-23 4-22 22 0 12-3 22-7 22-3 0-9 9-12 20-7 27-24 25-40-5-13-26-13-26-14 12-3 59 38 85 116 74zm3541-61c0-5-5-10-11-10-5 0-7 5-4 10 3 6 8 10 11 10 2 0 4-4 4-10zm-1860-35c0-8 5-15 11-15 5 0 8 4 4 9-3 5 0 13 6 17 9 5 10 0 6-17-4-13-7-30-7-36 0-7-4-13-10-13-5 0-10 7-10 15s-6 12-14 9-17-1-21 5c-3 6-1 11 4 11 6 0 11 7 11 15s5 15 10 15c6 0 10-7 10-15zm5655-15c-3-5-11-10-16-10-6 0-7 5-4 10 3 6 11 10 16 10 6 0 7-4 4-10zm-175-9c0-6-10-17-22-26-28-19-40 1-12 22 21 15 34 17 34 4zm-1287-32c-3-10-14-19-25-19-10 0-17 3-15 8 2 4 7 15 10 24 9 24 36 12 30-13zm1327-4c-8-10-6-15 10-20 11-3 19-9 16-13-2-4 5-16 15-26 20-20 25-12 9 14-14 22 9 30 33 11 11-9 36-31 56-48 19-18 39-33 44-33 4 0 5-9 2-20-5-17-1-21 25-26 36-8 46-22 55-86 5-36 3-53-11-76-9-17-23-28-30-25-7 2-34-16-61-42-26-25-50-46-53-46s-21-15-40-33c-45-41-102-82-115-82-5 0-31-4-58-8-32-6-57-4-77 4-24 10-33 10-45 0-18-15-45-6-45 15 0 8-5 15-11 15-5 0-9-10-7-22 2-18-2-23-18-23-11 0-27-5-35-11-22-17-49-24-49-13 0 6-4 7-10 4-5-3-10-1-10 4 0 7-23 11-57 10-85-2-85-2-73 21 9 17 8 20-10 20-11 0-20 7-20 15s-5 15-11 15c-5 0-9 12-8 28 1 15 1 41 0 57l-1 30-15-29c-9-16-13-35-11-43 3-7-3-17-12-23-15-9-16-11-1-22 19-15 32-71 15-65-6 2-12 13-14 25-5 30-22 28-22-2 0-31-14-40-30-21-7 8-23 15-36 15-15 0-24 6-24 15 0 8-6 15-14 15-9 0-12 7-9 20 8 29-4 25-20-7-14-26-15-26-21-5-4 12-12 22-17 22s-9 9-9 21c0 11-4 17-10 14-5-3-10-18-10-33-1-24-2-25-11-9-8 13-7 22 1 32 16 20 5 45-20 45-14 0-20 7-20 21 0 15-5 19-15 15-9-3-15 0-15 10 0 8 4 13 9 10 13-8 29 15 33 48l3 28 27-21c35-28 43-27 78 12 17 17 28 25 25 16s1-21 9-28c20-17 62-10 58 9-2 8 0 12 4 8 11-11 34 11 28 27-5 11 1 12 31 4 21-6 46-8 56-6 12 3 26-4 39-21 21-26 21-26 27-4 7 28 23 29 23 2 0-15 7-20 25-20 13 0 28 6 32 14 4 7 26 21 48 30 22 10 52 24 68 32 16 9 27 11 27 5s7-11 15-11 15 4 15 9 9 12 19 16c12 3 17 12 14 23-6 24 18 53 45 55 29 2 61 35 44 46-7 4-9 20-5 44 5 34 8 36 32 30 14-3 32-11 40-17 12-9 13-8 6 3-6 10 0 21 20 37 30 23 55 23 35-1zm-7320-30c0-11-21-25-35-25-3 0-9 9-15 21-9 15-8 24 1 35 10 13 14 12 30-2 11-10 19-23 19-29zm2992 39c3-3 4-14 1-25-6-22-38-26-46-5-9 23 28 48 45 30zm151-23c7-27-16-56-37-48-13 5-15 13-10 29 14 49 37 57 47 19zm4014 13c-3-3-12-4-19-1-8 3-5 6 6 6 11 1 17-2 13-5zm-5277-14c0-5-5-10-11-10-5 0-7 5-4 10 3 6 8 10 11 10 2 0 4-4 4-10zm-120-15c0-9-6-12-15-9-18 7-20-7-3-24 8-8 8-15 0-24-5-7-12-26-14-42-1-16-8-31-14-33-16-5-27 46-14 62 8 9 8 15 0 20-6 4 0 18 17 36 31 32 43 36 43 14zm1117-9c4-3 12-1 19 5s18 8 24 4c14-9 13-45-2-45-20 0 25-38 47-41 11-1 33 3 48 9 37 16 57 15 100-3 46-19 51-28 25-46-11-8-26-19-33-26-19-18-204-11-216 8-5 8-9 10-9 5s-9-1-20 9-20 26-20 37c0 10-4 18-8 18s-9 11-10 25c-1 19 3 25 18 25 11 0 20 5 20 11 0 7-12 10-30 7-19-3-30 0-30 8 0 9 10 10 36 4 19-5 38-11 41-14zm2693 9c0-9-9-15-25-15-24 0-32 10-18 23 12 13 43 7 43-8zm-3887-16c-4-13-9-17-15-11-11 11-3 32 12 32 4 0 6-9 3-21zm721 15c9-3 16-15 16-27 0-19 1-19 18-4 23 21 56 22 72 3 6-8 17-13 24-10 6 2 27-11 46-31 31-32 33-36 20-60-8-14-24-28-37-31-13-4-23-12-23-20 0-9-12-14-35-14-18 0-38-6-42-14-7-11-74-24-153-29-25-2-42 29-22 42 5 3 19 27 31 54 12 26 28 47 35 47 9 0 12 7 9 19-3 10 0 22 6 25 6 4 11 18 11 32 0 26 1 27 24 18zm2013-6c-2-7 3-19 12-25 14-11 14-14 1-23s-13-11 0-19c8-5 19-7 25-3 5 3 18 8 28 9 21 4 23-23 1-31-8-3-12-10-9-16 3-5 2-10-4-10-5 0-13 5-16 10-4 6-10 8-15 5-4-3-11 3-15 13-6 16-7 16-20-2-12-16-17-17-30-6-8 7-15 20-15 29s-7 25-15 35c-22 29-18 37 11 26 27-11 48-5 39 11-4 5 1 9 10 9s15-6 12-12zm2743-19c0-11-4-18-9-14-6 3-9 14-8 25 2 24 17 15 17-11zm-5272 2c3-8-1-12-9-9-7 2-15 10-17 17-3 8 1 12 9 9 7-2 15-10 17-17zm192-7c0-2-7-4-15-4s-15 4-15 10c0 5 7 7 15 4 8-4 15-8 15-10zm2401-17c-13-13-26-3-16 12 3 6 11 8 17 5 6-4 6-10-1-17zm954 13c11-17-5-52-21-46-8 3-17-1-20-9-9-22-19-18-32 10-20 43-19 44 55 54 6 0 15-4 18-9zm-5040-10c-3-5-11-10-16-10-6 0-7 5-4 10 3 6 11 10 16 10 6 0 7-4 4-10zm1392-12c-3-8-6-5-6 6-1 11 2 17 5 13 3-3 4-12 1-19zm193 11c0-6 6-9 13-6s19-4 25-14c7-10 18-19 25-18 9 0 9 2-1 6-6 2-9 9-6 15 3 5 17 0 31-14 18-17 22-18 17-5-4 11-1 17 8 17 8 0 22-22 32-50 18-50 49-80 61-60 3 5 1 10-4 10-6 0-11 7-11 15 0 23 17 18 23-7 6-21-14-71-32-83-6-3-15 4-21 15s-17 20-24 20c-8 0-17 7-20 16-5 13-9 14-21 4-26-21-90-6-124 29-17 18-31 27-31 21 0-22-45-6-48 18-2 12 1 22 7 22s11 9 11 20c0 29 14 25 27-7 10-26 11-27 12-5 1 26 20 51 39 52 6 0 12-5 12-11zm1207-11c-3-8-6-5-6 6-1 11 2 17 5 13 3-3 4-12 1-19zm793-9c0-12-7-19-20-19-24 0-25-8-5-36 18-27 8-37-19-19-30 21-39 18-32-10 6-22 3-25-19-25-14 0-25 5-25 10 0 6-7 10-15 10s-15 6-15 13c0 21 12 28 27 15 11-9 13-4 7 33-6 38-5 42 8 32 8-7 18-10 21-6 4 3 12 1 20-5 10-8 17-5 31 13 20 27 36 25 36-6zm70 16c7-8 16-12 21-9 11 7 31-44 23-58-4-5-21-7-40-3-30 5-34 3-34-15 0-11-4-20-9-20-13 0-20 64-8 71 5 4 7 14 4 22-5 14 4 24 24 26 4 1 12-6 19-14zm210-17c0-12-10-9-26 6-20 21-17 28 6 14 11-7 20-16 20-20zm30 11c0-6-4-7-10-4-5 3-10 11-10 16 0 6 5 7 10 4 6-3 10-11 10-16zm1645 1c3-6 17-10 29-10 14 0 30-10 40-25 20-30 20-45 1-45-12 0-11-7 6-36 23-42 21-48-14-35-31 12-41 1-32-32l7-22-21 23c-28 28-29 28-23-5 2-16 1-25-4-20-4 4-9 17-11 29-5 30-8 32-48 31-24-1-35 3-35 13 0 8-8 14-17 15-14 0-13 2 5 9 24 10 29 39 10 58-6 6-9 14-6 17s17-7 32-21c29-30 49-25 23 4-10 10-17 26-17 34 0 9-5 18-11 20s10 4 35 6c25 1 48-3 51-8zm-1781-26c4-11 1-14-11-12-9 2-18 9-21 16-6 18 25 15 32-4zm2332-16c6-18 13-40 15-48s10-20 18-26c14-11 10-16-21-27-15-5-17-1-15 34 2 22-2 48-9 57-15 19-18 42-6 42 4 0 12-15 18-32zm-3286 7c0-8-2-15-4-15s-6 7-10 15c-3 8-1 15 4 15 6 0 10-7 10-15zm-1680-5c0-5-2-10-4-10-3 0-8 5-11 10-3 6-1 10 4 10 6 0 11-4 11-10zm2715-51-8-23-14 27c-17 33-8 56 14 34 10-10 13-23 8-38zm52 29c-3-8-6-5-6 6-1 11 2 17 5 13 3-3 4-12 1-19zm-2692 2c3-5-1-10-9-10-9 0-16 5-16 10 0 6 4 10 9 10 6 0 13-4 16-10zm2210-14c19-25 5-101-17-94-11 4-20 29-19 61 0 15-2 15-15 3-7-8-11-22-8-30 4-11 0-16-14-16-13 0-22-9-26-25-4-14-13-25-22-25-11 0-13-6-9-20 4-11 2-20-4-20s-11 9-11 20c0 22-1 23-24 14-9-3-16-18-17-33l-1-26-8 25c-8 24-8 24-9 3-1-29-4-29-37 2-36 33-50 27-45-21 3-34 1-37-13-25-9 7-16 20-16 27 0 8-4 14-10 14-5 0-10-10-10-22 0-13-5-30-10-38-9-13-12-13-21 3-13 23-25 22-32-3-3-12-14-20-26-20s-30 9-41 20-24 20-30 20c-9 0-15-21-11-42 2-12-17-10-24 2-10 15-42 12-49-5-3-9-12-15-20-13s-21-6-29-17c-13-17-17-17-31-6-15 12-19 11-32-8-12-16-19-19-29-11-9 7-21 6-41-5-16-8-37-15-47-15s-28-5-40-12c-12-6-31-13-42-14-36-6-50-9-62-17-6-4-18-4-27-1s-22 2-29-4c-15-13-135-35-153-28-7 3-16 1-19-4-4-6-14-10-24-10s-24-7-31-15c-15-18-61-20-78-3-9 9-12 9-12 0 0-8-10-9-32-5-26 5-35 2-53-21-17-22-27-26-48-21-15 4-27 12-27 19 0 16-37 37-55 30-8-3-15-1-15 5s-10 11-23 11c-21 0-23 4-21 46 2 26 5 49 8 51 6 6 67 12 164 16 34 2 67 8 74 15s33 12 59 12 50 4 53 9c3 4 27 11 53 14s77 16 113 27c36 12 72 23 80 24 23 4 53 18 72 33 10 9 18 11 22 4 5-7 13-7 24-2 66 35 222 56 237 32 4-7 12-7 25 1 16 11 22 9 34-7 15-19 15-19 16 6 0 21 6 28 28 32 15 3 29 1 30-4 3-6 10-5 18 2 11 9 17 9 28 0 10-9 15-8 19 2 3 8 23 18 44 22s43 11 50 17c7 5 16 7 21 4 6-3 15 0 21 8 7 8 25 13 41 12 32-2 37 3 18 22-9 9-7 12 9 12 12 0 25-4 28-10 11-17 37-11 42 10 3 11 8 20 12 20s14-9 24-20c23-28 41-26 33 4-6 23-4 24 40 22 31-1 50-7 59-20zm2281 9c4-8 12-15 19-15 21 0 28-19 13-33-22-23-45-17-40 10 3 16 0 23-12 23-9 0-16-7-16-16s-5-14-12-12c-18 6-22 28-5 28 8 0 17 7 21 15 3 8 10 15 16 15s13-7 16-15zm-4991-15c3-5-1-10-10-10s-13 5-10 10c3 6 8 10 10 10s7-4 10-10zm3509-5c19-14 19-15 1-35-12-13-22-17-29-11s-17 6-26 1c-34-22-54-3-39 38 6 17 16 22 41 22 18 0 42-7 52-15zm1176-15c0-14-33-21-41-8-12 19 10 41 27 27 8-6 14-15 14-19zm-6800 10c0-5-4-10-10-10-5 0-10 5-10 10 0 6 5 10 10 10 6 0 10-4 10-10zm2628-45c-2-2-14-5-28-7-17-2-26 2-28 15-2 12 3 17 17 17 12 0 21 6 22 13 0 6 5 1 10-12s8-25 7-26zm2842 26c0-11-4-23-10-26-6-4-10 5-10 19s5 26 10 26c6 0 10-9 10-19zm2232-18c-5-24-6-25-12-8-6 16 2 33 16 35 1 0-1-12-4-27zm-2367-3c0-7-6-15-12-17-8-3-13 4-13 17s5 20 13 18c6-3 12-11 12-18zm768-5c-3-14-59-24-75-14-11 7-10 11 2 19 19 13 76 9 73-5zm1647-6c0-6-4-7-10-4-5 3-10 11-10 16 0 6 5 7 10 4 6-3 10-11 10-16zm-2550 1c0-5-2-10-4-10-3 0-8 5-11 10-3 6-1 10 4 10 6 0 11-4 11-10zm2800 0c0-5-7-10-15-10s-15 5-15 10c0 6 7 10 15 10s15-4 15-10zm-1532-44c22-27 21-30-18-38-14-3-70 33-70 45 0 3 7 13 16 21 18 19 38 11 72-28zm258-4c-9-8-26 10-26 26 1 15 2 15 15-2 8-11 13-21 11-24zm-102 13c-25-19-40-19-24 0 7 8 20 15 28 15 13 0 12-3-4-15zm157 5c5 0 9-5 9-11 0-15-43-7-48 10-3 10 0 12 12 8 10-4 22-7 27-7zm1129-10c0-5-4-10-10-10-5 0-10 5-10 10 0 6 5 10 10 10 6 0 10-4 10-10zm-1260-34c0-8 3-22 7-32 4-11 2-15-7-12-16 5-25 58-10 58 5 0 10-6 10-14zm-5025-6c-3-5-10-10-16-10-5 0-9 5-9 10 0 6 7 10 16 10 8 0 12-4 9-10zm195-18c0-4-5-14-10-22-9-13-11-13-19 0-6 9-6 19 1 27 10 12 28 9 28-5zm3500-6c0-18-17-29-30-21-8 5-7 11 1 21 15 18 29 18 29 0zm-2030-16c0-4-11-5-25-2-14 2-23 8-20 12 6 10 45 1 45-10zm2700-21c0-12-37-12-45 0-3 5 3 11 12 13 21 5 33 0 33-13zm-4036-13c15-5 16-9 6-21-7-8-22-15-35-15-12 0-25-3-28-7-12-11-61-10-69 1-10 14-10 56-1 56 3 0 15-8 26-17 19-17 20-17 34 4 11 16 19 20 31 13 10-5 25-11 36-14zm71-16c8-13-14-42-26-34-5 3-9 14-9 25 0 20 24 26 35 9zm-236-17c-7-10-14-20-16-22-1-1-7 0-13 4-14 9 6 35 27 35 13 0 13-3 2-17zm105-54c-3-5-10-7-15-3-5 3-7 10-3 15 3 5 10 7 15 3 5-3 7-10 3-15zm-41-14c-3-13-30-18-51-10-14 5-14 7-2 16 19 11 56 8 53-6zm100-9c7-18-17-28-32-13-16 16-13 27 8 27 10 0 21-6 24-14zm-203-13c0-19-25-43-45-43-13 0-25-6-28-12-3-10-9-8-24 5-11 9-23 17-26 17-14 0-7-31 8-36 8-4 12-10 9-15s3-9 14-9c17 0 62-34 62-46 0-3-36-3-80-1-46 3-80 2-80-4 0-5 6-9 14-9 7 0 19-6 25-14 7-8 21-12 32-9 15 4 22 0 26-16 3-11 9-21 14-21s9-4 9-10c0-14-79-33-107-25-18 4-29 1-38-12-18-24-47-7-60 35-10 35-29 41-43 16-11-21-60-12-69 12-3 9-17 28-29 42-31 32-30 38 4 50 15 6 20 11 11 11-9 1-22 7-28 15-10 11-8 17 9 29 13 9 17 17 11 22-6 3-11 12-11 18 0 9 2 9 8 0 11-17 100-35 120-24 9 5 40 7 70 4 46-5 55-3 68 15 13 19 24 21 84 20 39 0 70-3 70-5zm6016-70c-10-10-19 5-10 18 6 11 8 11 12 0 2-7 1-15-2-18zm-6481-13c8 0 15-9 15-20 0-25-11-25-41-2-16 14-20 24-15 38 7 18 8 18 17 2 6-10 17-18 24-18zm601-51c10-17-13-36-27-22-12 12-4 33 11 33 5 0 12-5 16-11zm124-24c0-8-7-15-15-15-16 0-20 12-8 23 11 12 23 8 23-8zm-2280-20c-14-17-60-21-60-5 0 6 14 10 30 10 17 0 30 5 30 12 0 6 3 8 6 5 4-4 1-13-6-22zm1571 5c6 0 8-4 5-9-8-13 26-71 42-71 6 0 12-6 12-14 0-12-7-12-35-5-64 18-110 89-58 89 16 0 16 2 3 11-12 9-12 10 3 5 10-3 23-6 28-6zm439-10c0-5-4-10-10-10-5 0-10 5-10 10 0 6 5 10 10 10 6 0 10-4 10-10zm-280-80c0-5-2-10-4-10-3 0-8 5-11 10-3 6-1 10 4 10 6 0 11-4 11-10zm-1404-115c4-8 15-15 25-15s19-6 19-12c0-30-31-124-43-133-7-5-16-18-20-27-3-10-11-18-17-18-5 0-10 8-10 18 0 9-5 24-10 32-9 13-11 13-19 0-6-8-14-11-18-6s-2 11 5 13c40 15 70 83 36 83-12 0-14 5-9 18 4 9 10 27 12 40 6 25 40 31 49 7zm-3499-77c-3-7-5-2-5 12s2 19 5 13c2-7 2-19 0-25zm17503-8c0-5-2-10-4-10-3 0-8 5-11 10-3 6-1 10 4 10 6 0 11-4 11-10zm-15755-10c-3-5-14-10-23-9-14 0-13 2 3 9 27 11 27 11 20 0zm130-10c3-5-1-10-9-10-9 0-16 5-16 10 0 6 4 10 9 10 6 0 13-4 16-10zm340-10c-3-5-13-10-21-10s-14 5-14 10c0 6 9 10 21 10 11 0 17-4 14-10zm1185-5c0-8-7-15-15-15-9 0-12 6-9 15 4 8 10 15 15 15s9-7 9-15zm-2540-85c0-6 8-5 20 2 15 10 22 10 32 0 6-6 22-12 34-12 13 0 25-4 28-9s21-12 40-15c37-7 64-30 47-41-11-6-98 20-117 36-6 5-31 8-57 7-44-2-97 16-97 34 0 4 16 8 35 8s35-5 35-10zm2520-15c0-8 7-15 15-15 18 0 19-12 3-28-9-9-8-12 5-12 22 0 23-48 2-57-20-7-25-1-29 31-2 15-8 32-14 38-13 13-16 41-5 51 11 12 23 8 23-8zm-3215-15c3-5 1-10-4-10-6 0-11 5-11 10 0 6 2 10 4 10 3 0 8-4 11-10zm1176-55c24-9 84-18 134-20 99-4 235-24 235-34 0-11-194-11-250 1-30 6-73 10-96 9-41-2-55 7-67 42-8 21-10 21 44 2zm1124-25c0-10-8-14-25-12-38 4-52 11-45 22 10 17 70 8 70-10zm-505 0c0-5-6-10-14-10s-18 5-21 10c-3 6 3 10 14 10 12 0 21-4 21-10zm196-24c20-21 17-28-6-16-11 6-20 15-20 20 0 14 9 12 26-4zm-381-86c3-5-1-10-9-10s-18 5-21 10c-3 6 1 10 9 10s18-4 21-10zm50-20c3-5 19-10 35-10 30 0 45-13 35-30-4-6-12-6-23 0-9 6-29 14-44 20-16 5-28 14-28 20 0 13 17 13 25 0zm14865-21c0-5-13-9-30-9s-33-7-40-17c-9-16-10-15-8 7 2 16 11 26 28 30 28 7 50 2 50-11zm-13007-8c10-10 17-90 7-96-15-9-40 7-46 30-3 14-11 22-19 19-22-9-28 15-10 42 12 19 21 23 38 18 12-3 25-9 30-13zm-123-50c0-6-4-13-10-16-5-3-10 1-10 9 0 9 5 16 10 16 6 0 10-4 10-9zm-2580-22c0-6-4-7-10-4-5 3-10 11-10 16 0 6 5 7 10 4 6-3 10-11 10-16zm327 5c-3-3-12-4-19-1-8 3-5 6 6 6 11 1 17-2 13-5zm83-14c0-5-2-10-4-10-3 0-8 5-11 10-3 6-1 10 4 10 6 0 11-4 11-10zm8628-15c0-15-6-25-14-25s-14 10-14 25 6 25 14 25 14-10 14-25zm5802-35c0-5-7-7-15-4-8 4-12 10-9 15 6 11 24 2 24-11zm-12133-15c9-24 0-25-27-5l-25 20h23c12 0 25-7 29-15zm-34-60c16-14 25-30 21-36-4-7-6-35-6-63 1-28-3-58-8-66s-10-11-10-6-7 3-15-4-25-10-39-6c-19 5-25 15-33 56s-8 54 4 66c8 8 13 20 11 26-4 12 30 58 41 58 3 0 19-12 34-25zm12257-5c0-5-7-7-15-4-8 4-15 8-15 10s7 4 15 4 15-4 15-10zm-4230-104c0-2-7-6-15-10-8-3-15-1-15 4 0 6 7 10 15 10s15-2 15-4zm-1460-636c0-5-5-10-11-10-5 0-7 5-4 10 3 6 8 10 11 10 2 0 4-4 4-10zm-6842-88c7-20 21-59 29-87 9-27 20-55 25-62 18-22-14-25-43-4-16 12-37 21-47 19-11-2-18 5-20 20-4 26 14 30 21 5 3-10 2 10 0 44-6 61 2 121 14 109 4-4 13-23 21-44zm4842-732c0-5-2-10-4-10-3 0-8 5-11 10-3 6-1 10 4 10 6 0 11-4 11-10z"/><path d="m14350 13004c0-8 5-12 10-9 6 3 10 10 10 16 0 5-4 9-10 9-5 0-10-7-10-16z"/><path d="m14205 12890c3-5 8-10 11-10 2 0 4 5 4 10 0 6-5 10-11 10-5 0-7-4-4-10z"/><path d="m14030 12810c0-5 5-10 11-10 5 0 7 5 4 10-3 6-8 10-11 10-2 0-4-4-4-10z"/><path d="m13562 12748c2-6 10-14 16-16 7-2 10 2 6 12-7 18-28 22-22 4z"/><path d="m14110 12740c0-11 4-20 9-20s7 9 4 20-7 20-9 20-4-9-4-20z"/><path d="m13636 12705c-3-8 0-16 7-19 9-5 9-7 0-12-7-3-13-10-13-16s6-6 15 2c8 7 15 9 15 4 0-4 5-3 11 3 8 8 5 17-9 31-16 16-22 17-26 7z"/><path d="m13745 12660c3-5 8-10 11-10 2 0 4 5 4 10 0 6-5 10-11 10-5 0-7-4-4-10z"/><path d="m13730 12628c0-7 5-20 10-28 8-12 10-9 10 13 0 15-4 27-10 27-5 0-10-6-10-12z"/><path d="m9200 12970c0-5 5-10 10-10 6 0 10 5 10 10 0 6-4 10-10 10-5 0-10-4-10-10z"/><path d="m11155 13009c4-5 16-9 27-9 26 0 19 9-11 15-12 2-19 0-16-6z"/><path d="m10770 12953c1-16 26-40 38-36 17 6 15 23-3 23-8 0-15 5-15 10 0 6-4 10-10 10-5 0-10-3-10-7z"/><path d="m10556 12863c8-32 12-39 19-31 9 8-6 58-16 58-5 0-6-12-3-27z"/><path d="m7647 12573c-4-3-7-11-7-17s5-5 12 2c6 6 9 14 7 17-3 3-9 2-12-2z"/><path d="m7700 12540c0-5 5-10 10-10 6 0 10 5 10 10 0 6-4 10-10 10-5 0-10-4-10-10z"/><path d="m7592 12488c5-15 28-18 29-3 0 6-7 12-17 13-10 3-15-1-12-10z"/><path d="m7680 12425c-14-17-12-22 10-25 35-5 41-1 28 20-15 24-22 25-38 5z"/><path d="m23482 13563c2-10 13-18 26-19 26-1 27 0 6 20-21 21-36 20-32-1z"/><path d="m6995 13459c-10-15 1-23 20-15 9 3 13 10 10 16-8 13-22 13-30-1z"/><path d="m16135 13460c3-5 8-10 11-10 2 0 4 5 4 10 0 6-5 10-11 10-5 0-7-4-4-10z"/><path d="m16155 13420c4-6 11-8 16-5 14 9 11 15-7 15-8 0-12-5-9-10z"/><path d="m9112 13358c5-15 28-23 28-10 0 5-7 13-16 16-10 4-14 1-12-6z"/><path d="m5853 13048c-41-20-21-97 32-132l26-17-7 35c-5 27-2 37 9 41 17 7 20 54 5 73-12 14-35 15-65 0z"/><path d="m5867 12853c-4-3-7-20-6-37l1-31 9 34c10 33 8 47-4 34z"/><path d="m5780 12634c0-8-4-12-10-9-5 3-10 1-10-5 0-7 7-9 16-6s20 6 25 6c15 0 10 17-6 24-9 3-15 0-15-10z"/><path d="m6015 12541c-3-5-1-12 5-16 5-3 10 1 10 9 0 18-6 21-15 7z"/><path d="m6022 12480c0-14 2-19 5-12 2 6 2 18 0 25-3 6-5 1-5-13z"/><path d="m19761 12404c0-11 3-14 6-6 3 7 2 16-1 19-3 4-6-2-5-13z"/><path d="m19760 12370c0-5 7-10 16-10 8 0 12 5 9 10-3 6-10 10-16 10-5 0-9-4-9-10z"/><path d="m5510 12323c0-12 5-25 10-28 13-8 13 15 0 35-8 12-10 11-10-7z"/><path d="m19786 12331c-18-7-18-8-2-14 25-10 72 3 54 14-15 10-26 10-52 0z"/><path d="m2473 12265c-2-41 0-44 16-35 16 8 17 14 7 45-6 19-13 35-16 35s-6-20-7-45z"/><path d="m2768 12303c7-3 16-2 19 1 4 3-2 6-13 5-11 0-14-3-6-6z"/><path d="m19295 12271c-3-5-1-12 5-16 12-7 30 2 30 16 0 12-27 12-35 0z"/><path d="m15165 12260c3-5 8-10 11-10 2 0 4 5 4 10 0 6-5 10-11 10-5 0-7-4-4-10z"/><path d="m19354 12224c-10-8-13-13-6-9 8 4 12-1 12-14 0-31 46-29 54 2 3 12 6 25 6 30 0 13-46 7-66-9z"/><path d="m19437 12226c-4-10-1-13 9-9 7 3 14 9 14 14 0 14-17 10-23-5z"/><path d="m2474 12214c-19-8 14-64 37-64 10 0 19 5 19 10 0 6-4 10-9 10s-11 10-13 22c-3 22-15 30-34 22z"/><path d="m14721 12184c0-11 3-14 6-6 3 7 2 16-1 19-3 4-6-2-5-13z"/><path d="m19235 12190c3-5 10-10 16-10 5 0 9 5 9 10 0 6-7 10-16 10-8 0-12-4-9-10z"/><path d="m14628 12073c-10-2-15-10-11-19 3-8 0-14-6-14s-11-4-11-9 11-8 25-7c14 0 25 7 25 14 0 6 7 12 16 12 14 0 14 2 0 15-8 8-16 14-18 14-2-1-11-3-20-6z"/><path d="m14595 12001c-6-11 9-23 19-14 9 9 7 23-3 23-6 0-12-4-16-9z"/><path d="m1640 11993c0-6-9-15-20-18-28-9-48-53-56-120-5-39-13-60-25-68-11-7-19-17-19-24s-18-16-39-19c-35-6-41-11-47-38-3-17-11-34-16-37-6-4-4-20 7-42 14-31 15-38 2-59-7-13-22-49-32-80-11-32-24-58-30-58-5 0-3-5 5-10 12-8 13-13 3-29s-9-20 4-25c14-6 13-9-6-27-12-11-19-24-16-29s0-18-7-30c-10-16-10-24 0-40 9-15 9-20 1-20-7 0-4-8 6-20 10-11 14-20 9-20-6 0-8-16-6-35 4-38-19-58-41-36-19 19-37 12-37-13 0-14 4-27 10-31s6-15 0-31c-6-14-10-40-10-58 0-19-7-39-15-46-40-33-60-76-62-130-1-30-5-74-9-97-5-35-4-43 9-43 9 0 23-7 31-16 14-14 14-18-6-44-11-16-43-44-69-62-27-18-49-36-49-40 0-5-7-8-15-8s-31-16-51-35c-19-19-40-35-45-35s-11-11-15-24c-3-15-17-29-35-35-20-7-29-17-30-33-1-13-3-36-5-51-2-21 0-26 9-19 7 5 31 13 54 17 29 4 44 13 48 26 7 22 18 24 33 6 6-7 7-18 2-26-4-8-6-20-3-28 7-18 33-17 33 2s10 19 24 1c11-15 45-20 99-18 18 1 42 16 67 42 22 23 40 44 40 48s14 19 30 34c20 18 30 36 30 55 0 16 7 38 15 49 8 12 12 24 9 27s4 18 15 34c22 29 47 105 60 183 11 62 15 74 25 81 5 4 9 19 9 33 0 15 3 29 8 32s9 38 9 77c0 40 5 90 11 112 5 22 12 78 15 125 7 106 9 114 34 107 16-4 20 0 20 21 0 14 7 33 16 43 18 20 25 94 15 154-6 35-10 40-34 40-26-1-27 1-27 55 0 83 6 97 39 92 25-3 27-1 24 25-1 15-7 48-13 73-11 44-11 46 21 72 40 34 44 70 12 118-13 19-23 29-23 23zm-53-507c-3-7-1-18 5-24 14-14-9-27-26-13-7 6-16 8-19 4-4-3-7-1-7 6 0 8 7 11 15 7 10-4 15 1 15 14 0 11 5 20 11 20s9-6 6-14z"/><path d="m21704 11935c-21-19-46-35-54-35-9 0-42-18-75-40s-66-40-72-40c-7 0-13-4-13-9 0-9-34-26-185-96-94-44-127-55-162-55-20 0-32-4-28-10 3-5 2-10-3-10-6 0-13 7-16 16-5 12-14 6-42-28l-37-43 34-3c39-5 169 16 185 29 23 19 155 80 202 94 27 8 55 22 62 30s18 15 25 15c6 0 28 15 47 33 68 63 96 87 102 87 11 0 86 78 86 89 0 19-15 12-56-24z"/><path d="m14530 11949c0-5 5-7 10-4 6 3 10 8 10 11 0 2-4 4-10 4-5 0-10-5-10-11z"/><path d="m14492 11904c-7-8-8-14-3-14 10 0 25 19 20 25-2 1-10-3-17-11z"/><path d="m12241 11884c0-11 3-14 6-6 3 7 2 16-1 19-3 4-6-2-5-13z"/><path d="m12402 11870c0-14 2-19 5-12 2 6 2 18 0 25-3 6-5 1-5-13z"/><path d="m1699 11863c-14-3-15-8-5-28 18-41 54-27 41 15-6 20-8 21-36 13z"/><path d="m12420 11820c-8-5-10-10-5-10 6 0 17 5 25 10s11 10 5 10c-5 0-17-5-25-10z"/><path d="m21307 11824c-12-12 3-22 23-17 11 3 17 9 14 14-6 10-28 12-37 3z"/><path d="m12545 11810c-3-5-1-10 4-10 6 0 11 5 11 10 0 6-2 10-4 10-3 0-8-4-11-10z"/><path d="m21192 11805c-18-6-74-11-125-11-82 1-93-1-93-17 0-22 13-25 115-31 65-4 92-1 115 11 17 9 37 19 45 23 47 22-1 43-57 25z"/><path d="m21745 11800c-11-18 5-31 26-20 11 6 17 15 14 21-8 12-32 12-40-1z"/><path d="m18986 11759c3-5 14-9 25-9 10 0 19 4 19 9s-11 9-25 9c-13 0-22-4-19-9z"/><path d="m18737 11729c7-25 23-35 23-15 0 9 6 16 14 16s17 4 20 9-9 9-28 9c-28 0-33-3-29-19z"/><path d="m3488 11733c7-3 16-2 19 1 4 3-2 6-13 5-11 0-14-3-6-6z"/><path d="m12580 11719c0-5 5-7 10-4 6 3 10 8 10 11 0 2-4 4-10 4-5 0-10-5-10-11z"/><path d="m18860 11720c0-5-8-10-18-10s-23-5-30-12c-9-9-12-8-12 5 0 20-16 23-23 3-8-21 69-41 91-24 24 18 32 31 26 40-7 11-34 10-34-2z"/><path d="m3548 11713c6-2 18-2 25 0 6 3 1 5-13 5s-19-2-12-5z"/><path d="m20805 11710c-3-5 1-10 10-10s13 5 10 10c-3 6-8 10-10 10s-7-4-10-10z"/><path d="m1710 11679c0-5 5-7 10-4 6 3 10 8 10 11 0 2-4 4-10 4-5 0-10-5-10-11z"/><path d="m12576 11674c-4-10-1-14 6-12 15 5 23 28 10 28-5 0-13-7-16-16z"/><path d="m1623 11620c-9-45-8-50 9-56 28-8 31-1 24 50-10 63-22 65-33 6z"/><path d="m21614 11655c4-24 16-30 16-7 0 12-4 22-9 22s-8-7-7-15z"/><path d="m21523 11643c-20-7-15-19 7-20 11-1 20 2 20 7 0 12-13 18-27 13z"/><path d="m21575 11630c-3-5 1-10 9-10 9 0 16 5 16 10 0 6-4 10-9 10-6 0-13-4-16-10z"/><path d="m20801 11614c0-11 3-14 6-6 3 7 2 16-1 19-3 4-6-2-5-13z"/><path d="m21650 11611c0-5-12-11-26-13-33-4-54-32-37-49 8-8 16-8 32 0 23 13 57 71 41 71-5 0-10-4-10-9z"/><path d="m13815 11590c-3-5-1-10 4-10 6 0 11 5 11 10 0 6-2 10-4 10-3 0-8-4-11-10z"/><path d="m21398 11593c-50-3-58-7-58-23 0-15 7-20 25-20 14 0 25 4 25 10s9 6 22 1c25-9 72 14 62 30-3 5-8 8-12 7s-33-3-64-5z"/><path d="m21557 11543c-4-3-7-11-7-17s5-5 12 2c6 6 9 14 7 17-3 3-9 2-12-2z"/><path d="m21273 11486c-24-20-78-45-78-36 0 2-13-8-28-22-17-16-34-47-42-78-7-28-22-63-32-78-17-27-27-122-12-122 4 0 9-15 11-32 3-38 27-45 44-13 28 53 43 72 87 113 29 28 47 54 47 68 0 34 10 54 29 54 14 1 13 2-2 11-10 6-21 8-25 5-3-4-12 8-19 25-14 34-4 59 22 59 12 0 75 55 75 66 0 14-53 0-77-20z"/><path d="m20885 11353c-9-32-23-71-30-88-7-16-13-67-14-112 0-79 0-83 28-103 16-11 32-20 35-20 8 0-5 198-14 224-4 11 1 35 12 57 19 39 24 99 9 99-4 0-16-26-26-57z"/><path d="m21339 11348c-9-69 4-86 36-52 20 22 22 29 12 45-13 21-46 26-48 7z"/><path d="m21344 11220c-12-5-25-13-29-19-10-18 18-12 45 9 26 21 20 25-16 10z"/><path d="m5520 11172c0-13 40-33 52-26 8 5 9 2 5-9s-1-17 7-17 24-16 36-36c14-26 24-34 31-27 24 24-59 123-103 123-15 0-28-3-28-8z"/><path d="m5899 10877c6-8 8-17 4-21s0-4 10 0c14 5 15 9 6 20-6 8-16 14-21 14-7 0-6-5 1-13z"/><path d="m5739 10813c-1-16-1-33 0-40 1-6-8-18-20-27-12-8-19-21-16-29 8-20 59-28 77-12 8 7 24 15 34 16 27 5 33 29 8 29-11 0-22-6-25-12-8-23-28 7-31 48-2 21-4 42-5 47-3 20-21 3-22-20z"/><path d="m10938 10213c7-3 16-2 19 1 4 3-2 6-13 5-11 0-14-3-6-6z"/><path d="m881 10183c5-31-2-52-16-47-8 4-15 2-15-3 0-13 34-43 48-43 7 0 21-5 31-12 27-16 70 3 68 31-1 14-11 21-34 26-19 3-40 16-49 30-15 24-35 34-33 18z"/><path d="m1213 10148c-7-13-15-31-19-40-7-21-19-22-64-7-24 9-34 9-39 0-5-7-12-11-17-9s-10 0-11-4c-8-22 0-33 22-33 14 0 25 3 25 8 0 4 9 7 20 7 12 0 17-5 14-14-14-35 38-26 88 16 33 28 42 68 19 85-22 17-25 16-38-9z"/><path d="m11000 9930c0-5 7-10 15-10s15 5 15 10c0 6-7 10-15 10s-15-4-15-10z"/><path d="m10987 9893c-12-11-8-23 8-23 8 0 15 7 15 15 0 16-12 20-23 8z"/><path d="m11025 9880c-3-5 1-10 10-10s13 5 10 10c-3 6-8 10-10 10s-7-4-10-10z"/><path d="m15060 9559c0-5 5-7 10-4 6 3 10 8 10 11 0 2-4 4-10 4-5 0-10-5-10-11z"/></g></svg>